<svg width="24" height="25" viewBox="0 0 24 25" fill="none" xmlns="http://www.w3.org/2000/svg">
<path fill-rule="evenodd" clip-rule="evenodd" d="M4 2.32812C2.89543 2.32812 2 3.22356 2 4.32813V20.3281C2 21.4327 2.89543 22.3281 4 22.3281H20C21.1046 22.3281 22 21.4327 22 20.3281V4.32812C22 3.22356 21.1046 2.32812 20 2.32812H4ZM14.2526 6.32812C15.4104 6.50622 16.5178 6.819 17.5535 7.24937C19.3644 9.65119 20.2642 12.3601 19.932 15.4845C18.5464 16.4046 17.2024 16.9628 15.881 17.3281C15.5538 16.9297 15.2644 16.5051 15.014 16.0599C15.4909 15.8989 15.949 15.7003 16.3819 15.4685C16.2686 15.3932 16.1566 15.3144 16.0472 15.2334C13.4459 16.327 10.5855 16.327 7.95279 15.2334C7.84457 15.3144 7.73256 15.3932 7.61805 15.4685C8.04969 15.6991 8.5065 15.8978 8.98345 16.0587C8.73302 16.5051 8.44233 16.9286 8.11638 17.327C6.79627 16.9617 5.4535 16.4035 4.06794 15.4845C3.78479 12.7893 4.35109 10.0553 6.44013 7.25165C7.47584 6.82015 8.58454 6.50622 9.74357 6.32812C9.88704 6.55644 10.0569 6.86353 10.1714 7.10782C11.3796 6.94343 12.599 6.94343 13.8298 7.10782C13.9443 6.86353 14.1104 6.55644 14.2526 6.32812ZM7.9037 12.3738C7.9037 13.1717 8.55181 13.827 9.34212 13.827C10.1463 13.827 10.7818 13.1717 10.7805 12.3738C10.7944 11.5747 10.1463 10.9195 9.34212 10.9195C8.53797 10.9195 7.9037 11.5759 7.9037 12.3738ZM13.2194 12.3738C13.2194 13.1717 13.8675 13.827 14.6578 13.827C15.462 13.827 16.0962 13.1717 16.0962 12.3738C16.1101 11.5747 15.462 10.9195 14.6578 10.9195C13.8537 10.9195 13.2194 11.5759 13.2194 12.3738Z" fill="#B9BADB"/>
</svg>
