<svg width="24" height="25" viewBox="0 0 24 25" fill="none" xmlns="http://www.w3.org/2000/svg">
<path fill-rule="evenodd" clip-rule="evenodd" d="M4 2.32812C2.89543 2.32812 2 3.22356 2 4.32812V20.3281C2 21.4327 2.89543 22.3281 4 22.3281H20C21.1046 22.3281 22 21.4327 22 20.3281V4.32813C22 3.22356 21.1046 2.32812 20 2.32812H4ZM18.9149 6.75362L16.5651 18.0563C16.5098 18.3232 16.1968 18.4441 15.976 18.2836L12.7684 15.9548C12.5736 15.8134 12.3081 15.8209 12.1217 15.9729L10.3432 17.4226C10.1368 17.5914 9.8258 17.4974 9.74677 17.2432L8.80318 14.2086C8.61943 13.6176 8.17247 13.145 7.59269 12.9286L5.32141 12.081C4.99732 11.9596 4.99455 11.502 5.31771 11.3775L18.4114 6.32632C18.689 6.21898 18.9754 6.46215 18.9149 6.75362Z" fill="#B9BADB"/>
<path fill-rule="evenodd" clip-rule="evenodd" d="M15.8255 8.34786L9.31178 12.7057C9.06211 12.8731 8.94461 13.2006 9.02515 13.5072L9.72941 16.1953C9.77951 16.3858 10.0339 16.3663 10.0583 16.1695L10.2413 14.6954C10.2759 14.4179 10.3977 14.162 10.5867 13.9711L15.9624 8.54299C16.063 8.44173 15.9425 8.2698 15.8255 8.34786Z" fill="#B9BADB"/>
</svg>
